<svg width="25" height="25" viewBox="0 0 25 25" fill="none" xmlns="http://www.w3.org/2000/svg">
<path d="M11.3281 20.7031C7.45117 20.7031 4.29688 17.5488 4.29688 13.6719C4.29688 9.79492 7.45117 6.64062 11.3281 6.64062C15.2051 6.64062 18.3594 9.79492 18.3594 13.6719C18.3594 17.5488 15.2051 20.7031 11.3281 20.7031ZM11.3281 7.42188C7.88203 7.42188 5.07813 10.2258 5.07813 13.6719C5.07813 17.118 7.88203 19.9219 11.3281 19.9219C14.7742 19.9219 17.5781 17.118 17.5781 13.6719C17.5781 10.2258 14.7746 7.42188 11.3281 7.42188Z" fill="url(#paint0_linear_10166_3154)"/>
<path d="M18.9719 10.6879C19.3434 11.6375 19.5312 12.6414 19.5312 13.6719C19.5312 18.1949 15.8512 21.875 11.3281 21.875C6.80508 21.875 3.125 18.1949 3.125 13.6719C3.125 9.14883 6.80508 5.46875 11.3281 5.46875C12.3578 5.46875 13.3617 5.65703 14.3133 6.02852L14.5973 5.30078C13.5555 4.89375 12.4555 4.6875 11.3281 4.6875C6.37422 4.6875 2.34375 8.71758 2.34375 13.6719C2.34375 18.6262 6.37383 22.6562 11.3281 22.6562C16.2824 22.6562 20.3125 18.6262 20.3125 13.6719C20.3125 12.5437 20.1063 11.4441 19.6996 10.4035L18.9719 10.6879Z" fill="url(#paint1_linear_10166_3154)"/>
<path d="M22.6223 5.70449C22.5379 5.42597 22.3082 5.21738 22.023 5.15996L20.2027 4.7959L19.8391 2.97754C19.782 2.69199 19.5738 2.4623 19.2949 2.37754C19.0168 2.29277 18.7152 2.36777 18.5086 2.57441L15.9707 5.11269C15.6906 5.39316 15.5703 5.79238 15.6477 6.18066L16.084 8.39121L15.7156 8.78886L14.6277 9.84824C13.7391 9.08613 12.5875 8.60761 11.3281 8.60761C8.52813 8.60761 6.25 10.8787 6.25 13.6787C6.25 16.4787 8.52813 18.7533 11.3281 18.7533C14.1281 18.7533 16.4063 16.4732 16.4063 13.6732C16.4063 12.4135 15.9426 11.2611 15.1801 10.3725L16.6367 8.91543L18.818 9.35175C18.8957 9.36738 18.9734 9.3748 19.0512 9.3748C19.3617 9.3748 19.6621 9.25215 19.8867 9.02793L22.425 6.48886C22.6305 6.28379 22.7059 5.98301 22.6223 5.70449ZM19.073 3.13066L19.4465 4.99941L18.8457 5.60058L18.4293 6.01699L18.0547 4.14316L19.073 3.13066ZM16.4137 6.02793C16.3875 5.89629 16.4285 5.76035 16.5234 5.66504L17.3898 4.80371L17.7652 6.68105L16.7477 7.69863L16.4137 6.02793ZM15.6246 13.6717C15.6246 16.0408 13.6969 17.9686 11.3277 17.9686C8.95859 17.9686 7.03086 16.0408 7.03086 13.6717C7.03086 11.3025 8.95859 9.3748 11.3277 9.3748C12.3719 9.3748 13.3301 9.7498 14.0754 10.3717L12.1164 12.3303C11.8844 12.1932 11.6168 12.1092 11.3277 12.1092C10.466 12.1092 9.76523 12.81 9.76523 13.6717C9.76523 14.5334 10.466 15.2342 11.3277 15.2342C12.1895 15.2342 12.8902 14.5334 12.8902 13.6717C12.8902 13.3826 12.8063 13.1154 12.6688 12.8826L14.6277 10.924C15.2496 11.6693 15.6246 12.6275 15.6246 13.6717ZM12.109 13.6717C12.109 14.1025 11.7586 14.4529 11.3277 14.4529C10.8969 14.4529 10.5465 14.1025 10.5465 13.6717C10.5465 13.2408 10.8969 12.8904 11.3277 12.8904C11.7586 12.8904 12.109 13.2408 12.109 13.6717ZM19.334 8.47597C19.2387 8.57129 19.1027 8.61191 18.9711 8.58574L17.3004 8.25136L18.318 7.23418L20.1992 7.61035L19.334 8.47597ZM20.8629 6.94668L18.982 6.57011L19.973 5.5791L19.9988 5.55332L21.873 5.93652L20.8629 6.94668Z" fill="url(#paint2_linear_10166_3154)"/>
<defs>
<linearGradient id="paint0_linear_10166_3154" x1="11.3281" y1="5.95703" x2="11.3281" y2="21.0344" gradientUnits="userSpaceOnUse">
<stop stop-color="#6DC7FF"/>
<stop offset="1" stop-color="#E6ABFF"/>
</linearGradient>
<linearGradient id="paint1_linear_10166_3154" x1="11.3281" y1="2.05078" x2="11.3281" y2="23.2996" gradientUnits="userSpaceOnUse">
<stop stop-color="#1A6DFF"/>
<stop offset="1" stop-color="#C822FF"/>
</linearGradient>
<linearGradient id="paint2_linear_10166_3154" x1="14.4527" y1="2.05058" x2="14.4527" y2="23.3041" gradientUnits="userSpaceOnUse">
<stop stop-color="#1A6DFF"/>
<stop offset="1" stop-color="#C822FF"/>
</linearGradient>
</defs>
</svg>
